{"title":"Crimes That Shook Australia - S02E04 - Darcey Freeman","uid":15108806,"size":375005755,"categoryP":"video","categoryS":"tv_shows","magnet":"?xt=urn:btih:1003c0450f79f6b8bf9a44253e6170d33f72e31e&amp;dn=Crimes+That+Shook+Australia+-+S02E04+-+Darcey+Freeman&amp;tr=udp%3A%2F%2Ftracker.leechers-paradise.org%3A6969&amp;tr=udp%3A%2F%2Fzer0day.ch%3A1337&amp;tr=udp%3A%2F%2Fopen.demonii.com%3A1337&amp;tr=udp%3A%2F%2Ftracker.coppersurfer.tk%3A6969&amp;tr=udp%3A%2F%2Fexodus.desync.com%3A6969","seeders":7,"leechers":1,"uploader":"Bullrout","files":1,"time":1466988825,"description":"Crimes That Shook Australia - S02E04 - Darcey Freeman\r\n\r\nIt was the tragic crime that took place on Melbourne?s West Gate Bridge. On January 29, 2009, Darcey Freeman became the victim of a bitter custody battle. Could the courts have foreseen the dire actions of her father?\r\n\r\nComplete name : Crimes That Shook Australia - S02E04 - Darcey Freeman.mp4\r\nFormat : MPEG-4\r\nFormat profile : Base Media / Version 2\r\nCodec ID : mp42 (mp42/isom/avc1)\r\nFile size : 358 MiB\r\nDuration : 45mn 4s\r\nOverall bit rate mode : Variable\r\nOverall bit rate : 1 109 Kbps\r\n\r\nVideo\r\nID : 2\r\nFormat : AVC\r\nFormat/Info : Advanced Video Codec\r\nFormat profile :   \r\nFormat settings, CABAC : Yes\r\nFormat settings, ReFrames : 3 frames\r\nCodec ID : avc1\r\nCodec ID/Info : Advanced Video Coding\r\nDuration : 45mn 4s\r\nBit rate mode : Variable\r\nBit rate : 978 Kbps\r\nMaximum bit rate : 1 000 Kbps\r\nWidth : 720 pixels\r\nHeight : 404 pixels\r\nDisplay aspect ratio : 16:9\r\nOriginal display aspect ratio : 16:9\r\nFrame rate mode : Constant\r\nFrame rate : 25.000 fps\r\nStandard : PAL\r\nColor space : YUV\r\nChroma subsampling : 4:2:0\r\nBit depth : 8 bits\r\nScan type : Progressive\r\nBits/(Pixel*Frame) : 0.134\r\nStream size : 315 MiB (88%)\r\nWriting library : x264 core 112\r\nColor range : Limited\r\nColor primaries : BT.601 PAL\r\nTransfer characteristics : BT.470 System B, BT.470 System G\r\nMatrix coefficients : BT.601\r\n\r\nAudio\r\nID : 1\r\nFormat : AAC\r\nFormat/Info : Advanced Audio Codec\r\nFormat profile : LC\r\nCodec ID : 40\r\nDuration : 45mn 4s\r\nBit rate mode : Variable\r\nBit rate : 128 Kbps\r\nMaximum bit rate : 576 Kbps\r\nChannel(s) : 2 channels\r\nChannel positions : Front: L R\r\nSampling rate : 48.0 KHz\r\nFrame rate : 46.875 fps (1024 spf)\r\nCompression mode : Lossy\r\nStream size : 41.3 MiB (12%)","torrent":{"xt":"urn:btih:1003c0450f79f6b8bf9a44253e6170d33f72e31e","amp;dn":"Crimes+That+Shook+Australia+-+S02E04+-+Darcey+Freeman","amp;tr":["udp%3A%2F%2Ftracker.leechers-paradise.org%3A6969","udp%3A%2F%2Fzer0day.ch%3A1337","udp%3A%2F%2Fopen.demonii.com%3A1337","udp%3A%2F%2Ftracker.coppersurfer.tk%3A6969","udp%3A%2F%2Fexodus.desync.com%3A6969"],"infoHash":"1003c0450f79f6b8bf9a44253e6170d33f72e31e","infoHashBuffer":{"type":"Buffer","data":[16,3,192,69,15,121,246,184,191,154,68,37,62,97,112,211,63,114,227,30]},"announce":[],"urlList":[]}}